<svg height="660" width="660"
    xmlns="http://www.w3.org/2000/svg"
    xmlns:xlink="http://www.w3.org/1999/xlink"
    xmlns:ev="http://www.w3.org/2001/xml-events">
<title>Original Bottom Strand</title>
<rect x="0" y="0" width="660" height="660" fill="white" />
<text x="330" y="20" text-anchor="middle">Original Bottom Strand</text>
<line x1="80" y1="80" x2="80" y2="580" stroke="black" />
<line x1="80" y1="580" x2="580" y2="580" stroke="black" />
<text x="15" y="330" transform="rotate(270 15, 330)" text-anchor="middle" dominant-baseline="text-before-edge">CpG Methylation %</text>
<text x="330" y="620" text-anchor="middle">Position along mapped read (5'->3' of + strand)</text>
<line x1="80" y1="580" x2="80" y2="585" stroke="black" />
<text x="80" y="600" text-anchor="middle">0</text>
<line x1="120.000000" y1="80" x2="120.000000" y2="580" stroke-dasharray="5 5" stroke="grey" />
<line x1="120.000000" y1="580" x2="120.000000" y2="585" stroke="black" />
<text x="120.000000" y="600" text-anchor="middle">10</text>
<line x1="160.000000" y1="80" x2="160.000000" y2="580" stroke-dasharray="5 5" stroke="grey" />
<line x1="160.000000" y1="580" x2="160.000000" y2="585" stroke="black" />
<text x="160.000000" y="600" text-anchor="middle">20</text>
<line x1="200.000000" y1="80" x2="200.000000" y2="580" stroke-dasharray="5 5" stroke="grey" />
<line x1="200.000000" y1="580" x2="200.000000" y2="585" stroke="black" />
<text x="200.000000" y="600" text-anchor="middle">30</text>
<line x1="240.000000" y1="80" x2="240.000000" y2="580" stroke-dasharray="5 5" stroke="grey" />
<line x1="240.000000" y1="580" x2="240.000000" y2="585" stroke="black" />
<text x="240.000000" y="600" text-anchor="middle">40</text>
<line x1="280.000000" y1="80" x2="280.000000" y2="580" stroke-dasharray="5 5" stroke="grey" />
<line x1="280.000000" y1="580" x2="280.000000" y2="585" stroke="black" />
<text x="280.000000" y="600" text-anchor="middle">50</text>
<line x1="320.000000" y1="80" x2="320.000000" y2="580" stroke-dasharray="5 5" stroke="grey" />
<line x1="320.000000" y1="580" x2="320.000000" y2="585" stroke="black" />
<text x="320.000000" y="600" text-anchor="middle">60</text>
<line x1="360.000000" y1="80" x2="360.000000" y2="580" stroke-dasharray="5 5" stroke="grey" />
<line x1="360.000000" y1="580" x2="360.000000" y2="585" stroke="black" />
<text x="360.000000" y="600" text-anchor="middle">70</text>
<line x1="400.000000" y1="80" x2="400.000000" y2="580" stroke-dasharray="5 5" stroke="grey" />
<line x1="400.000000" y1="580" x2="400.000000" y2="585" stroke="black" />
<text x="400.000000" y="600" text-anchor="middle">80</text>
<line x1="440.000000" y1="80" x2="440.000000" y2="580" stroke-dasharray="5 5" stroke="grey" />
<line x1="440.000000" y1="580" x2="440.000000" y2="585" stroke="black" />
<text x="440.000000" y="600" text-anchor="middle">90</text>
<line x1="480.000000" y1="80" x2="480.000000" y2="580" stroke-dasharray="5 5" stroke="grey" />
<line x1="480.000000" y1="580" x2="480.000000" y2="585" stroke="black" />
<text x="480.000000" y="600" text-anchor="middle">100</text>
<line x1="520.000000" y1="80" x2="520.000000" y2="580" stroke-dasharray="5 5" stroke="grey" />
<line x1="520.000000" y1="580" x2="520.000000" y2="585" stroke="black" />
<text x="520.000000" y="600" text-anchor="middle">110</text>
<line x1="560.000000" y1="80" x2="560.000000" y2="580" stroke-dasharray="5 5" stroke="grey" />
<line x1="560.000000" y1="580" x2="560.000000" y2="585" stroke="black" />
<text x="560.000000" y="600" text-anchor="middle">120</text>
<line x1="80" y1="580.000000" x2="75" y2="580.000000" stroke="black" />
<text x="55" y="580.000000" text-anchor="middle" dominant-baseline="middle">0.00</text>
<line x1="80" y1="555.000000" x2="75" y2="555.000000" stroke="black" />
<text x="55" y="555.000000" text-anchor="middle" dominant-baseline="middle">0.05</text>
<line x1="80" y1="530.000000" x2="75" y2="530.000000" stroke="black" />
<text x="55" y="530.000000" text-anchor="middle" dominant-baseline="middle">0.10</text>
<line x1="80" y1="505.000000" x2="75" y2="505.000000" stroke="black" />
<text x="55" y="505.000000" text-anchor="middle" dominant-baseline="middle">0.15</text>
<line x1="80" y1="480.000000" x2="75" y2="480.000000" stroke="black" />
<text x="55" y="480.000000" text-anchor="middle" dominant-baseline="middle">0.20</text>
<line x1="80" y1="455.000000" x2="75" y2="455.000000" stroke="black" />
<text x="55" y="455.000000" text-anchor="middle" dominant-baseline="middle">0.25</text>
<line x1="80" y1="430.000000" x2="75" y2="430.000000" stroke="black" />
<text x="55" y="430.000000" text-anchor="middle" dominant-baseline="middle">0.30</text>
<line x1="80" y1="405.000000" x2="75" y2="405.000000" stroke="black" />
<text x="55" y="405.000000" text-anchor="middle" dominant-baseline="middle">0.35</text>
<line x1="80" y1="380.000000" x2="75" y2="380.000000" stroke="black" />
<text x="55" y="380.000000" text-anchor="middle" dominant-baseline="middle">0.40</text>
<line x1="80" y1="355.000000" x2="75" y2="355.000000" stroke="black" />
<text x="55" y="355.000000" text-anchor="middle" dominant-baseline="middle">0.45</text>
<line x1="80" y1="330.000000" x2="75" y2="330.000000" stroke="black" />
<text x="55" y="330.000000" text-anchor="middle" dominant-baseline="middle">0.50</text>
<line x1="80" y1="305.000000" x2="75" y2="305.000000" stroke="black" />
<text x="55" y="305.000000" text-anchor="middle" dominant-baseline="middle">0.55</text>
<line x1="80" y1="280.000000" x2="75" y2="280.000000" stroke="black" />
<text x="55" y="280.000000" text-anchor="middle" dominant-baseline="middle">0.60</text>
<line x1="80" y1="255.000000" x2="75" y2="255.000000" stroke="black" />
<text x="55" y="255.000000" text-anchor="middle" dominant-baseline="middle">0.65</text>
<line x1="80" y1="230.000000" x2="75" y2="230.000000" stroke="black" />
<text x="55" y="230.000000" text-anchor="middle" dominant-baseline="middle">0.70</text>
<line x1="80" y1="205.000000" x2="75" y2="205.000000" stroke="black" />
<text x="55" y="205.000000" text-anchor="middle" dominant-baseline="middle">0.75</text>
<line x1="80" y1="180.000000" x2="75" y2="180.000000" stroke="black" />
<text x="55" y="180.000000" text-anchor="middle" dominant-baseline="middle">0.80</text>
<line x1="80" y1="155.000000" x2="75" y2="155.000000" stroke="black" />
<text x="55" y="155.000000" text-anchor="middle" dominant-baseline="middle">0.85</text>
<line x1="80" y1="130.000000" x2="75" y2="130.000000" stroke="black" />
<text x="55" y="130.000000" text-anchor="middle" dominant-baseline="middle">0.90</text>
<line x1="80" y1="105.000000" x2="75" y2="105.000000" stroke="black" />
<text x="55" y="105.000000" text-anchor="middle" dominant-baseline="middle">0.95</text>
<line x1="80" y1="80.000000" x2="75" y2="80.000000" stroke="black" />
<text x="55" y="80.000000" text-anchor="middle" dominant-baseline="middle">1.00</text>
<path d="M 84.000000 237.259828
  L 88.000000 210.032367
  L 92.000000 207.636525
  L 96.000000 210.673339
  L 100.000000 216.119651
  L 104.000000 213.102368
  L 108.000000 209.994543
  L 112.000000 212.425507
  L 116.000000 208.924868
  L 120.000000 206.373157
  L 124.000000 209.428849
  L 128.000000 210.398413
  L 132.000000 209.817196
  L 136.000000 208.741363
  L 140.000000 209.493403
  L 144.000000 209.355923
  L 148.000000 205.955445
  L 152.000000 208.905213
  L 156.000000 206.629970
  L 160.000000 206.522002
  L 164.000000 206.530170
  L 168.000000 208.793100
  L 172.000000 206.006054
  L 176.000000 206.257295
  L 180.000000 205.535449
  L 184.000000 206.463419
  L 188.000000 207.298300
  L 192.000000 203.937305
  L 196.000000 205.139369
  L 200.000000 205.138149
  L 204.000000 205.241107
  L 208.000000 203.997969
  L 212.000000 205.932839
  L 216.000000 201.182447
  L 220.000000 208.450981
  L 224.000000 203.524972
  L 228.000000 204.436010
  L 232.000000 205.932851
  L 236.000000 202.340825
  L 240.000000 201.679720
  L 244.000000 202.501323
  L 248.000000 204.924273
  L 252.000000 204.455298
  L 256.000000 204.108127
  L 260.000000 204.418817
  L 264.000000 201.184284
  L 268.000000 204.804478
  L 272.000000 203.668572
  L 276.000000 200.620522
  L 280.000000 202.189568
  L 284.000000 202.634664
  L 288.000000 202.393841
  L 292.000000 201.716168
  L 296.000000 203.488759
  L 300.000000 202.713592
  L 304.000000 201.272179
  L 308.000000 203.246613
  L 312.000000 202.054367
  L 316.000000 202.218394
  L 320.000000 200.298547
  L 324.000000 201.606038
  L 328.000000 200.501928
  L 332.000000 199.728466
  L 336.000000 200.321129
  L 340.000000 201.618479
  L 344.000000 201.366045
  L 348.000000 201.855103
  L 352.000000 200.761013
  L 356.000000 201.291581
  L 360.000000 199.652626
  L 364.000000 201.000302
  L 368.000000 198.934614
  L 372.000000 199.318428
  L 376.000000 200.036314
  L 380.000000 202.448707
  L 384.000000 200.579150
  L 388.000000 199.468420
  L 392.000000 200.652324
  L 396.000000 198.955076
  L 400.000000 200.936373
  L 404.000000 198.808656
  L 408.000000 199.669106
  L 412.000000 199.329634
  L 416.000000 200.187425
  L 420.000000 199.432471
  L 424.000000 199.817248
  L 428.000000 199.089520
  L 432.000000 200.259912
  L 436.000000 198.683162
  L 440.000000 198.121849
  L 444.000000 197.711252
  L 448.000000 198.753164
  L 452.000000 197.147354
  L 456.000000 198.659564
  L 460.000000 197.986908
  L 464.000000 200.450686
  L 468.000000 199.762080
  L 472.000000 200.176009
  L 476.000000 198.452571
  L 480.000000 197.912101
  L 484.000000 197.710842
  L 488.000000 198.071871
  L 492.000000 195.203505
  L 496.000000 198.615382
  L 500.000000 198.301040
  L 504.000000 199.074331
  L 508.000000 199.120982
  L 512.000000 198.764150
  L 516.000000 196.965504
  L 520.000000 196.747989
  L 524.000000 196.824265
  L 528.000000 196.520172
  L 532.000000 197.651352
  L 536.000000 196.665986
  L 540.000000 198.264140
  L 544.000000 199.160467
  L 548.000000 197.959178
  L 552.000000 198.918357
  L 556.000000 196.550869
  L 560.000000 194.214584
  L 564.000000 191.223594
  L 568.000000 195.355018
  L 572.000000 197.314185
  L 576.000000 183.839209
  L 580.000000 174.065990
  L 580.000000 172.612945
  L 576.000000 182.300084
  L 572.000000 195.812190
  L 568.000000 193.957140
  L 564.000000 189.844866
  L 560.000000 192.821665
  L 556.000000 195.113672
  L 552.000000 197.473628
  L 548.000000 196.571647
  L 544.000000 197.769066
  L 540.000000 196.874504
  L 536.000000 195.298132
  L 532.000000 196.269158
  L 528.000000 195.155273
  L 524.000000 195.450266
  L 520.000000 195.384398
  L 516.000000 195.599185
  L 512.000000 197.380841
  L 508.000000 197.738402
  L 504.000000 197.691933
  L 500.000000 196.926473
  L 496.000000 197.234625
  L 492.000000 193.862968
  L 488.000000 196.702618
  L 484.000000 196.349611
  L 480.000000 196.540333
  L 476.000000 197.083391
  L 472.000000 198.792574
  L 468.000000 198.383619
  L 464.000000 199.058897
  L 460.000000 196.626437
  L 456.000000 197.283574
  L 452.000000 195.795272
  L 448.000000 197.389281
  L 444.000000 196.354042
  L 440.000000 196.760710
  L 436.000000 197.313917
  L 432.000000 198.879500
  L 428.000000 197.733096
  L 424.000000 198.447176
  L 420.000000 198.061773
  L 416.000000 198.802687
  L 412.000000 197.955379
  L 408.000000 198.292105
  L 404.000000 197.449452
  L 400.000000 199.543415
  L 396.000000 197.585574
  L 392.000000 199.274033
  L 388.000000 198.108993
  L 384.000000 199.205546
  L 380.000000 201.042184
  L 376.000000 198.662927
  L 372.000000 197.955583
  L 368.000000 197.581493
  L 364.000000 199.620608
  L 360.000000 198.285164
  L 356.000000 199.904870
  L 352.000000 199.396395
  L 348.000000 200.468395
  L 344.000000 199.981707
  L 340.000000 200.235706
  L 336.000000 198.957477
  L 332.000000 198.368680
  L 328.000000 199.130703
  L 324.000000 200.224973
  L 320.000000 198.924325
  L 316.000000 200.830620
  L 312.000000 200.670099
  L 308.000000 201.855230
  L 304.000000 199.914218
  L 300.000000 201.328675
  L 296.000000 202.088711
  L 292.000000 200.345281
  L 288.000000 201.011444
  L 284.000000 201.239966
  L 280.000000 200.807803
  L 276.000000 199.269162
  L 272.000000 202.268511
  L 268.000000 203.398881
  L 264.000000 199.821451
  L 260.000000 203.016871
  L 256.000000 202.710242
  L 252.000000 203.055477
  L 248.000000 203.510800
  L 244.000000 201.134330
  L 240.000000 200.311317
  L 236.000000 200.963618
  L 232.000000 204.519301
  L 228.000000 203.041201
  L 224.000000 202.149490
  L 220.000000 207.009499
  L 216.000000 199.833024
  L 212.000000 204.532120
  L 208.000000 202.618518
  L 204.000000 203.846455
  L 200.000000 203.734733
  L 196.000000 203.743952
  L 192.000000 202.555003
  L 188.000000 205.878793
  L 184.000000 205.059030
  L 180.000000 204.159172
  L 176.000000 204.857681
  L 172.000000 204.618893
  L 168.000000 207.359975
  L 164.000000 205.129625
  L 160.000000 205.125757
  L 156.000000 205.222937
  L 152.000000 207.471168
  L 148.000000 204.583276
  L 144.000000 207.927881
  L 140.000000 208.068526
  L 136.000000 207.336219
  L 132.000000 208.395419
  L 128.000000 208.960103
  L 124.000000 208.006248
  L 120.000000 204.997478
  L 116.000000 207.515340
  L 112.000000 210.972946
  L 108.000000 208.599233
  L 104.000000 211.641759
  L 100.000000 214.655303
  L 96.000000 209.242186
  L 92.000000 206.250171
  L 88.000000 208.754348
  L 84.000000 235.740955
Z" fill="rgb(248,118,109)" fill-opacity="0.2"/>
<path d="M 84.000000 528.703004
  L 88.000000 331.672521
  L 92.000000 279.247330
  L 96.000000 280.047016
  L 100.000000 263.269857
  L 104.000000 244.872270
  L 108.000000 240.468229
  L 112.000000 239.524107
  L 116.000000 241.401362
  L 120.000000 240.282136
  L 124.000000 238.810868
  L 128.000000 236.442705
  L 132.000000 233.543288
  L 136.000000 230.645479
  L 140.000000 227.854025
  L 144.000000 226.989663
  L 148.000000 224.838990
  L 152.000000 223.117701
  L 156.000000 222.774035
  L 160.000000 221.681779
  L 164.000000 219.561156
  L 168.000000 217.873493
  L 172.000000 217.048501
  L 176.000000 214.115017
  L 180.000000 214.950590
  L 184.000000 212.966097
  L 188.000000 213.397007
  L 192.000000 212.550188
  L 196.000000 212.812951
  L 200.000000 212.326792
  L 204.000000 211.505199
  L 208.000000 210.221824
  L 212.000000 208.619215
  L 216.000000 208.318118
  L 220.000000 208.594891
  L 224.000000 205.904771
  L 228.000000 207.058421
  L 232.000000 207.769157
  L 236.000000 206.659235
  L 240.000000 206.057044
  L 244.000000 206.357703
  L 248.000000 206.388432
  L 252.000000 205.954892
  L 256.000000 205.525554
  L 260.000000 205.007813
  L 264.000000 205.061155
  L 268.000000 204.103553
  L 272.000000 204.755449
  L 276.000000 204.718717
  L 280.000000 204.831337
  L 284.000000 205.114065
  L 288.000000 205.515013
  L 292.000000 204.412296
  L 296.000000 203.474907
  L 300.000000 204.322435
  L 304.000000 203.161988
  L 308.000000 203.631441
  L 312.000000 203.305219
  L 316.000000 204.308982
  L 320.000000 203.830115
  L 324.000000 204.467301
  L 328.000000 203.971891
  L 332.000000 203.684152
  L 336.000000 202.585142
  L 340.000000 203.223394
  L 344.000000 202.916144
  L 348.000000 203.631452
  L 352.000000 202.992835
  L 356.000000 203.866169
  L 360.000000 203.913573
  L 364.000000 204.144771
  L 368.000000 204.474130
  L 372.000000 203.629328
  L 376.000000 203.187860
  L 380.000000 202.739629
  L 384.000000 203.378397
  L 388.000000 203.116018
  L 392.000000 203.719775
  L 396.000000 203.773097
  L 400.000000 203.920203
  L 404.000000 204.260052
  L 408.000000 203.615478
  L 412.000000 203.280180
  L 416.000000 203.232504
  L 420.000000 203.009410
  L 424.000000 203.258135
  L 428.000000 203.244120
  L 432.000000 203.023743
  L 436.000000 203.455381
  L 440.000000 203.673134
  L 444.000000 203.375969
  L 448.000000 204.120960
  L 452.000000 203.963529
  L 456.000000 204.265062
  L 460.000000 203.362813
  L 464.000000 203.301925
  L 468.000000 203.315665
  L 472.000000 203.494110
  L 476.000000 203.304321
  L 480.000000 203.582156
  L 484.000000 204.492156
  L 488.000000 204.307239
  L 492.000000 204.341762
  L 496.000000 204.630706
  L 500.000000 204.074374
  L 504.000000 203.318367
  L 508.000000 203.455044
  L 512.000000 203.369173
  L 516.000000 203.710032
  L 520.000000 203.986840
  L 524.000000 203.640068
  L 528.000000 204.061525
  L 532.000000 203.937458
  L 536.000000 203.426704
  L 540.000000 203.281937
  L 544.000000 203.443695
  L 548.000000 202.831273
  L 552.000000 201.867450
  L 556.000000 202.750281
  L 560.000000 202.898521
  L 564.000000 202.937044
  L 568.000000 202.463910
  L 572.000000 202.838410
  L 576.000000 199.915741
  L 580.000000 80.010076
  L 580.000000 80.000000
  L 576.000000 198.465786
  L 572.000000 201.404950
  L 568.000000 201.047386
  L 564.000000 201.521091
  L 560.000000 201.487711
  L 556.000000 201.343067
  L 552.000000 200.466267
  L 548.000000 201.421788
  L 544.000000 202.032632
  L 540.000000 201.875370
  L 536.000000 202.022569
  L 532.000000 202.531844
  L 528.000000 202.653112
  L 524.000000 202.235755
  L 520.000000 202.581499
  L 516.000000 202.301805
  L 512.000000 201.968368
  L 508.000000 202.055507
  L 504.000000 201.921387
  L 500.000000 202.667337
  L 496.000000 203.219440
  L 492.000000 202.935516
  L 488.000000 202.905559
  L 484.000000 203.088911
  L 480.000000 202.187470
  L 476.000000 201.911930
  L 472.000000 202.096505
  L 468.000000 201.920853
  L 464.000000 201.908565
  L 460.000000 201.973897
  L 456.000000 202.867655
  L 452.000000 202.573328
  L 448.000000 202.727386
  L 444.000000 201.984382
  L 440.000000 202.278933
  L 436.000000 202.061869
  L 432.000000 201.633482
  L 428.000000 201.852322
  L 424.000000 201.868557
  L 420.000000 201.621652
  L 416.000000 201.843405
  L 412.000000 201.895408
  L 408.000000 202.226443
  L 404.000000 202.864269
  L 400.000000 202.525828
  L 396.000000 202.378973
  L 392.000000 202.326156
  L 388.000000 201.727080
  L 384.000000 201.985823
  L 380.000000 201.351533
  L 376.000000 201.801664
  L 372.000000 202.238739
  L 368.000000 203.080660
  L 364.000000 202.754236
  L 360.000000 202.521517
  L 356.000000 202.478074
  L 352.000000 201.611731
  L 348.000000 202.238397
  L 344.000000 201.527519
  L 340.000000 201.836465
  L 336.000000 201.205435
  L 332.000000 202.298823
  L 328.000000 202.584526
  L 324.000000 203.072467
  L 320.000000 202.445300
  L 316.000000 202.913660
  L 312.000000 201.920997
  L 308.000000 202.239554
  L 304.000000 201.780865
  L 300.000000 202.928713
  L 296.000000 202.083026
  L 292.000000 203.019610
  L 288.000000 204.114081
  L 284.000000 203.719442
  L 280.000000 203.444972
  L 276.000000 203.328634
  L 272.000000 203.357554
  L 268.000000 202.715665
  L 264.000000 203.666550
  L 260.000000 203.609950
  L 256.000000 204.129869
  L 252.000000 204.554867
  L 248.000000 204.990798
  L 244.000000 204.965782
  L 240.000000 204.671733
  L 236.000000 205.266653
  L 232.000000 206.360286
  L 228.000000 205.661172
  L 224.000000 204.528660
  L 220.000000 207.186819
  L 216.000000 206.920586
  L 212.000000 207.217861
  L 208.000000 208.807356
  L 204.000000 210.081467
  L 200.000000 210.902846
  L 196.000000 211.388898
  L 192.000000 211.136077
  L 188.000000 211.963690
  L 184.000000 211.548803
  L 180.000000 213.514891
  L 176.000000 212.707265
  L 172.000000 215.611070
  L 168.000000 216.423842
  L 164.000000 218.104941
  L 160.000000 220.221597
  L 156.000000 221.303002
  L 152.000000 221.657800
  L 148.000000 223.364039
  L 144.000000 225.500027
  L 140.000000 226.362759
  L 136.000000 229.147578
  L 132.000000 232.030333
  L 128.000000 234.924458
  L 124.000000 237.295372
  L 120.000000 238.757638
  L 116.000000 239.818328
  L 112.000000 237.894498
  L 108.000000 238.926444
  L 104.000000 243.295003
  L 100.000000 261.713228
  L 96.000000 278.379695
  L 92.000000 277.266073
  L 88.000000 330.261910
  L 84.000000 527.834354
Z" fill="rgb(0,191,196)" fill-opacity="0.2"/>
<path d="M 84.000000 236.499389
  L 88.000000 209.392331
  L 92.000000 206.942100
  L 96.000000 209.956484
  L 100.000000 215.386232
  L 104.000000 212.370774
  L 108.000000 209.295662
  L 112.000000 211.697940
  L 116.000000 208.218835
  L 120.000000 205.684068
  L 124.000000 208.716264
  L 128.000000 209.677962
  L 132.000000 209.105032
  L 136.000000 208.037527
  L 140.000000 208.779678
  L 144.000000 208.640607
  L 148.000000 205.268110
  L 152.000000 208.186876
  L 156.000000 205.925150
  L 160.000000 205.822594
  L 164.000000 205.828605
  L 168.000000 208.075223
  L 172.000000 205.311196
  L 176.000000 205.556192
  L 180.000000 204.846045
  L 184.000000 205.759923
  L 188.000000 206.587231
  L 192.000000 203.244850
  L 196.000000 204.440353
  L 200.000000 204.435118
  L 204.000000 204.542476
  L 208.000000 203.306946
  L 212.000000 205.231176
  L 216.000000 200.506446
  L 220.000000 207.728904
  L 224.000000 202.835933
  L 228.000000 203.737286
  L 232.000000 205.224748
  L 236.000000 201.650899
  L 240.000000 200.994202
  L 244.000000 201.816527
  L 248.000000 204.216191
  L 252.000000 203.754059
  L 256.000000 203.407854
  L 260.000000 203.716511
  L 264.000000 200.501553
  L 268.000000 204.100347
  L 272.000000 202.967199
  L 276.000000 199.943540
  L 280.000000 201.497352
  L 284.000000 201.935964
  L 288.000000 201.701311
  L 292.000000 201.029403
  L 296.000000 202.787389
  L 300.000000 202.019803
  L 304.000000 200.591895
  L 308.000000 202.549588
  L 312.000000 201.360892
  L 316.000000 201.523162
  L 320.000000 199.610083
  L 324.000000 200.914163
  L 328.000000 199.814972
  L 332.000000 199.047238
  L 336.000000 199.637971
  L 340.000000 200.925746
  L 344.000000 200.672522
  L 348.000000 201.160400
  L 352.000000 200.077378
  L 356.000000 200.596866
  L 360.000000 198.967544
  L 364.000000 200.309104
  L 368.000000 198.256717
  L 372.000000 198.635657
  L 376.000000 199.348264
  L 380.000000 201.744068
  L 384.000000 199.891002
  L 388.000000 198.787368
  L 392.000000 199.961824
  L 396.000000 198.268957
  L 400.000000 200.238516
  L 404.000000 198.127704
  L 408.000000 198.979236
  L 412.000000 198.641136
  L 416.000000 199.493680
  L 420.000000 198.745760
  L 424.000000 199.130858
  L 428.000000 198.409968
  L 432.000000 199.568340
  L 436.000000 197.997167
  L 440.000000 197.439913
  L 444.000000 197.031281
  L 448.000000 198.069862
  L 452.000000 196.469947
  L 456.000000 197.970182
  L 460.000000 197.305305
  L 464.000000 199.753407
  L 468.000000 199.071478
  L 472.000000 199.482918
  L 476.000000 197.766604
  L 480.000000 197.224825
  L 484.000000 197.028852
  L 488.000000 197.385861
  L 492.000000 194.531858
  L 496.000000 197.923607
  L 500.000000 197.612366
  L 504.000000 198.381740
  L 508.000000 198.428301
  L 512.000000 198.071096
  L 516.000000 196.280946
  L 520.000000 196.064796
  L 524.000000 196.135848
  L 528.000000 195.836319
  L 532.000000 196.958837
  L 536.000000 195.980651
  L 540.000000 197.567900
  L 544.000000 198.463358
  L 548.000000 197.263989
  L 552.000000 198.194468
  L 556.000000 195.830714
  L 560.000000 193.516615
  L 564.000000 190.532691
  L 568.000000 194.654583
  L 572.000000 196.561504
  L 576.000000 183.067519
  L 580.000000 173.337289
" stroke="rgb(248,118,109)" stroke-width="2" fill-opacity="0"/>
<path d="M 84.000000 528.270292
  L 88.000000 330.967224
  L 92.000000 278.255853
  L 96.000000 279.212766
  L 100.000000 262.490837
  L 104.000000 244.082667
  L 108.000000 239.696349
  L 112.000000 238.708183
  L 116.000000 240.608817
  L 120.000000 239.518919
  L 124.000000 238.052143
  L 128.000000 235.682567
  L 132.000000 232.785762
  L 136.000000 229.895459
  L 140.000000 227.107290
  L 144.000000 226.243732
  L 148.000000 224.100392
  L 152.000000 222.386624
  L 156.000000 222.037370
  L 160.000000 220.950539
  L 164.000000 218.831873
  L 168.000000 217.147476
  L 172.000000 216.328602
  L 176.000000 213.409960
  L 180.000000 214.231525
  L 184.000000 212.256234
  L 188.000000 212.679112
  L 192.000000 211.841915
  L 196.000000 212.099694
  L 200.000000 211.613582
  L 204.000000 210.792082
  L 208.000000 209.513334
  L 212.000000 207.917279
  L 216.000000 207.618094
  L 220.000000 207.889583
  L 224.000000 205.215457
  L 228.000000 206.358518
  L 232.000000 207.063434
  L 236.000000 205.961667
  L 240.000000 205.363115
  L 244.000000 205.660462
  L 248.000000 205.688325
  L 252.000000 205.253577
  L 256.000000 204.826410
  L 260.000000 204.307567
  L 264.000000 204.362545
  L 268.000000 203.408297
  L 272.000000 204.055182
  L 276.000000 204.022370
  L 280.000000 204.136859
  L 284.000000 204.415447
  L 288.000000 204.813236
  L 292.000000 203.714638
  L 296.000000 202.777636
  L 300.000000 203.624255
  L 304.000000 202.470111
  L 308.000000 202.934169
  L 312.000000 202.611789
  L 316.000000 203.609999
  L 320.000000 203.136397
  L 324.000000 203.768566
  L 328.000000 203.276896
  L 332.000000 202.990173
  L 336.000000 201.893966
  L 340.000000 202.528604
  L 344.000000 202.220497
  L 348.000000 202.933595
  L 352.000000 202.300965
  L 356.000000 203.170805
  L 360.000000 203.216222
  L 364.000000 203.448188
  L 368.000000 203.776079
  L 372.000000 202.932708
  L 376.000000 202.493437
  L 380.000000 202.044244
  L 384.000000 202.680776
  L 388.000000 202.420218
  L 392.000000 203.021636
  L 396.000000 203.074706
  L 400.000000 203.221688
  L 404.000000 203.560837
  L 408.000000 202.919638
  L 412.000000 202.586474
  L 416.000000 202.536625
  L 420.000000 202.314201
  L 424.000000 202.562016
  L 428.000000 202.546887
  L 432.000000 202.327277
  L 436.000000 202.757291
  L 440.000000 202.974702
  L 444.000000 202.678844
  L 448.000000 203.422851
  L 452.000000 203.267110
  L 456.000000 203.565032
  L 460.000000 202.667028
  L 464.000000 202.603909
  L 468.000000 202.616920
  L 472.000000 202.793967
  L 476.000000 202.606791
  L 480.000000 202.883479
  L 484.000000 203.789199
  L 488.000000 203.605064
  L 492.000000 203.637297
  L 496.000000 203.923726
  L 500.000000 203.369507
  L 504.000000 202.618534
  L 508.000000 202.753930
  L 512.000000 202.667421
  L 516.000000 203.004561
  L 520.000000 203.282822
  L 524.000000 202.936560
  L 528.000000 203.355967
  L 532.000000 203.233303
  L 536.000000 202.723282
  L 540.000000 202.577291
  L 544.000000 202.736795
  L 548.000000 202.125154
  L 552.000000 201.165481
  L 556.000000 202.045301
  L 560.000000 202.191738
  L 564.000000 202.227681
  L 568.000000 201.754251
  L 572.000000 202.120256
  L 576.000000 199.189249
  L 580.000000 80.000000
" stroke="rgb(0,191,196)" stroke-width="2" fill-opacity="0"/>
<text x="650" y="650" text-anchor="end">--OB 2,124,15,124</text>
<line x1="88.000000" y1="580" x2="88.000000" y2="80" stroke-dasharray="5 1" stroke="rgb(248,118,109)" stroke-width="1" />
<line x1="576.000000" y1="580" x2="576.000000" y2="80" stroke-dasharray="5 1" stroke="rgb(248,118,109)" stroke-width="1" />
<line x1="140.000000" y1="580" x2="140.000000" y2="80" stroke-dasharray="5 1" stroke="rgb(0,191,196)" stroke-width="1" />
<line x1="576.000000" y1="580" x2="576.000000" y2="80" stroke-dasharray="5 1" stroke="rgb(0,191,196)" stroke-width="1" />
<rect x="590" y="310" width="20" height="20" fill="rgb(248,118,109)" />
<text x="615" y="320" text-anchor="start" dominant-baseline="middle">#1</text>
<rect x="590" y="330" width="20" height="20" fill="rgb(0,191,196)" />
<text x="615" y="340" text-anchor="start" dominant-baseline="middle">#2</text>
</svg>
