<svg height="660" width="660"
    xmlns="http://www.w3.org/2000/svg"
    xmlns:xlink="http://www.w3.org/1999/xlink"
    xmlns:ev="http://www.w3.org/2001/xml-events">
<title>Original Bottom Strand</title>
<rect x="0" y="0" width="660" height="660" fill="white" />
<text x="330" y="20" text-anchor="middle">Original Bottom Strand</text>
<line x1="80" y1="80" x2="80" y2="580" stroke="black" />
<line x1="80" y1="580" x2="580" y2="580" stroke="black" />
<text x="15" y="330" transform="rotate(270 15, 330)" text-anchor="middle" dominant-baseline="text-before-edge">CpG Methylation %</text>
<text x="330" y="620" text-anchor="middle">Position along mapped read (5'->3' of + strand)</text>
<line x1="80" y1="580" x2="80" y2="585" stroke="black" />
<text x="80" y="600" text-anchor="middle">0</text>
<line x1="120.000000" y1="80" x2="120.000000" y2="580" stroke-dasharray="5 5" stroke="grey" />
<line x1="120.000000" y1="580" x2="120.000000" y2="585" stroke="black" />
<text x="120.000000" y="600" text-anchor="middle">10</text>
<line x1="160.000000" y1="80" x2="160.000000" y2="580" stroke-dasharray="5 5" stroke="grey" />
<line x1="160.000000" y1="580" x2="160.000000" y2="585" stroke="black" />
<text x="160.000000" y="600" text-anchor="middle">20</text>
<line x1="200.000000" y1="80" x2="200.000000" y2="580" stroke-dasharray="5 5" stroke="grey" />
<line x1="200.000000" y1="580" x2="200.000000" y2="585" stroke="black" />
<text x="200.000000" y="600" text-anchor="middle">30</text>
<line x1="240.000000" y1="80" x2="240.000000" y2="580" stroke-dasharray="5 5" stroke="grey" />
<line x1="240.000000" y1="580" x2="240.000000" y2="585" stroke="black" />
<text x="240.000000" y="600" text-anchor="middle">40</text>
<line x1="280.000000" y1="80" x2="280.000000" y2="580" stroke-dasharray="5 5" stroke="grey" />
<line x1="280.000000" y1="580" x2="280.000000" y2="585" stroke="black" />
<text x="280.000000" y="600" text-anchor="middle">50</text>
<line x1="320.000000" y1="80" x2="320.000000" y2="580" stroke-dasharray="5 5" stroke="grey" />
<line x1="320.000000" y1="580" x2="320.000000" y2="585" stroke="black" />
<text x="320.000000" y="600" text-anchor="middle">60</text>
<line x1="360.000000" y1="80" x2="360.000000" y2="580" stroke-dasharray="5 5" stroke="grey" />
<line x1="360.000000" y1="580" x2="360.000000" y2="585" stroke="black" />
<text x="360.000000" y="600" text-anchor="middle">70</text>
<line x1="400.000000" y1="80" x2="400.000000" y2="580" stroke-dasharray="5 5" stroke="grey" />
<line x1="400.000000" y1="580" x2="400.000000" y2="585" stroke="black" />
<text x="400.000000" y="600" text-anchor="middle">80</text>
<line x1="440.000000" y1="80" x2="440.000000" y2="580" stroke-dasharray="5 5" stroke="grey" />
<line x1="440.000000" y1="580" x2="440.000000" y2="585" stroke="black" />
<text x="440.000000" y="600" text-anchor="middle">90</text>
<line x1="480.000000" y1="80" x2="480.000000" y2="580" stroke-dasharray="5 5" stroke="grey" />
<line x1="480.000000" y1="580" x2="480.000000" y2="585" stroke="black" />
<text x="480.000000" y="600" text-anchor="middle">100</text>
<line x1="520.000000" y1="80" x2="520.000000" y2="580" stroke-dasharray="5 5" stroke="grey" />
<line x1="520.000000" y1="580" x2="520.000000" y2="585" stroke="black" />
<text x="520.000000" y="600" text-anchor="middle">110</text>
<line x1="560.000000" y1="80" x2="560.000000" y2="580" stroke-dasharray="5 5" stroke="grey" />
<line x1="560.000000" y1="580" x2="560.000000" y2="585" stroke="black" />
<text x="560.000000" y="600" text-anchor="middle">120</text>
<line x1="80" y1="580.000000" x2="75" y2="580.000000" stroke="black" />
<text x="55" y="580.000000" text-anchor="middle" dominant-baseline="middle">0.00</text>
<line x1="80" y1="555.000000" x2="75" y2="555.000000" stroke="black" />
<text x="55" y="555.000000" text-anchor="middle" dominant-baseline="middle">0.05</text>
<line x1="80" y1="530.000000" x2="75" y2="530.000000" stroke="black" />
<text x="55" y="530.000000" text-anchor="middle" dominant-baseline="middle">0.10</text>
<line x1="80" y1="505.000000" x2="75" y2="505.000000" stroke="black" />
<text x="55" y="505.000000" text-anchor="middle" dominant-baseline="middle">0.15</text>
<line x1="80" y1="480.000000" x2="75" y2="480.000000" stroke="black" />
<text x="55" y="480.000000" text-anchor="middle" dominant-baseline="middle">0.20</text>
<line x1="80" y1="455.000000" x2="75" y2="455.000000" stroke="black" />
<text x="55" y="455.000000" text-anchor="middle" dominant-baseline="middle">0.25</text>
<line x1="80" y1="430.000000" x2="75" y2="430.000000" stroke="black" />
<text x="55" y="430.000000" text-anchor="middle" dominant-baseline="middle">0.30</text>
<line x1="80" y1="405.000000" x2="75" y2="405.000000" stroke="black" />
<text x="55" y="405.000000" text-anchor="middle" dominant-baseline="middle">0.35</text>
<line x1="80" y1="380.000000" x2="75" y2="380.000000" stroke="black" />
<text x="55" y="380.000000" text-anchor="middle" dominant-baseline="middle">0.40</text>
<line x1="80" y1="355.000000" x2="75" y2="355.000000" stroke="black" />
<text x="55" y="355.000000" text-anchor="middle" dominant-baseline="middle">0.45</text>
<line x1="80" y1="330.000000" x2="75" y2="330.000000" stroke="black" />
<text x="55" y="330.000000" text-anchor="middle" dominant-baseline="middle">0.50</text>
<line x1="80" y1="305.000000" x2="75" y2="305.000000" stroke="black" />
<text x="55" y="305.000000" text-anchor="middle" dominant-baseline="middle">0.55</text>
<line x1="80" y1="280.000000" x2="75" y2="280.000000" stroke="black" />
<text x="55" y="280.000000" text-anchor="middle" dominant-baseline="middle">0.60</text>
<line x1="80" y1="255.000000" x2="75" y2="255.000000" stroke="black" />
<text x="55" y="255.000000" text-anchor="middle" dominant-baseline="middle">0.65</text>
<line x1="80" y1="230.000000" x2="75" y2="230.000000" stroke="black" />
<text x="55" y="230.000000" text-anchor="middle" dominant-baseline="middle">0.70</text>
<line x1="80" y1="205.000000" x2="75" y2="205.000000" stroke="black" />
<text x="55" y="205.000000" text-anchor="middle" dominant-baseline="middle">0.75</text>
<line x1="80" y1="180.000000" x2="75" y2="180.000000" stroke="black" />
<text x="55" y="180.000000" text-anchor="middle" dominant-baseline="middle">0.80</text>
<line x1="80" y1="155.000000" x2="75" y2="155.000000" stroke="black" />
<text x="55" y="155.000000" text-anchor="middle" dominant-baseline="middle">0.85</text>
<line x1="80" y1="130.000000" x2="75" y2="130.000000" stroke="black" />
<text x="55" y="130.000000" text-anchor="middle" dominant-baseline="middle">0.90</text>
<line x1="80" y1="105.000000" x2="75" y2="105.000000" stroke="black" />
<text x="55" y="105.000000" text-anchor="middle" dominant-baseline="middle">0.95</text>
<line x1="80" y1="80.000000" x2="75" y2="80.000000" stroke="black" />
<text x="55" y="80.000000" text-anchor="middle" dominant-baseline="middle">1.00</text>
<path d="M 84.000000 306.602800
  L 88.000000 280.375602
  L 92.000000 273.340428
  L 96.000000 278.369572
  L 100.000000 284.631141
  L 104.000000 280.228597
  L 108.000000 277.571234
  L 112.000000 279.291047
  L 116.000000 276.004060
  L 120.000000 273.963687
  L 124.000000 276.137650
  L 128.000000 278.142829
  L 132.000000 276.443225
  L 136.000000 275.127045
  L 140.000000 276.672010
  L 144.000000 276.429196
  L 148.000000 272.953771
  L 152.000000 276.147049
  L 156.000000 273.020924
  L 160.000000 273.743784
  L 164.000000 274.221813
  L 168.000000 275.428558
  L 172.000000 272.885767
  L 176.000000 272.707728
  L 180.000000 272.510067
  L 184.000000 273.765495
  L 188.000000 274.574989
  L 192.000000 271.887547
  L 196.000000 272.312854
  L 200.000000 272.879798
  L 204.000000 272.835645
  L 208.000000 271.339689
  L 212.000000 273.853852
  L 216.000000 268.584482
  L 220.000000 276.400850
  L 224.000000 271.643022
  L 228.000000 271.905020
  L 232.000000 273.395389
  L 236.000000 269.640500
  L 240.000000 270.210995
  L 244.000000 270.421996
  L 248.000000 273.063501
  L 252.000000 272.675498
  L 256.000000 272.232077
  L 260.000000 272.321382
  L 264.000000 270.026940
  L 268.000000 272.356754
  L 272.000000 271.295879
  L 276.000000 268.104464
  L 280.000000 271.226774
  L 284.000000 270.605783
  L 288.000000 270.920391
  L 292.000000 269.865103
  L 296.000000 270.631755
  L 300.000000 270.649691
  L 304.000000 268.839841
  L 308.000000 271.364520
  L 312.000000 271.312290
  L 316.000000 271.381555
  L 320.000000 269.370739
  L 324.000000 270.286114
  L 328.000000 269.478334
  L 332.000000 268.612809
  L 336.000000 268.951052
  L 340.000000 270.646110
  L 344.000000 270.309384
  L 348.000000 271.541127
  L 352.000000 269.134347
  L 356.000000 269.609876
  L 360.000000 267.636331
  L 364.000000 270.063087
  L 368.000000 267.720080
  L 372.000000 268.175547
  L 376.000000 269.894096
  L 380.000000 271.774484
  L 384.000000 269.641209
  L 388.000000 269.587569
  L 392.000000 269.844707
  L 396.000000 267.406630
  L 400.000000 269.672492
  L 404.000000 267.255454
  L 408.000000 268.571062
  L 412.000000 269.355728
  L 416.000000 269.874030
  L 420.000000 268.301506
  L 424.000000 269.525123
  L 428.000000 268.484108
  L 432.000000 269.561990
  L 436.000000 268.265262
  L 440.000000 267.776518
  L 444.000000 268.523720
  L 448.000000 268.822851
  L 452.000000 267.407458
  L 456.000000 268.229035
  L 460.000000 267.409034
  L 464.000000 269.902121
  L 468.000000 270.061232
  L 472.000000 269.832982
  L 476.000000 269.367269
  L 480.000000 267.454200
  L 484.000000 267.153472
  L 488.000000 267.317307
  L 492.000000 266.184730
  L 496.000000 268.031822
  L 500.000000 267.385942
  L 504.000000 267.881281
  L 508.000000 268.961769
  L 512.000000 266.991639
  L 516.000000 265.177045
  L 520.000000 264.221449
  L 524.000000 264.733842
  L 528.000000 264.605022
  L 532.000000 266.167065
  L 536.000000 265.064172
  L 540.000000 266.884554
  L 544.000000 266.816806
  L 548.000000 264.591014
  L 552.000000 264.910117
  L 556.000000 260.061513
  L 560.000000 257.433853
  L 564.000000 251.859298
  L 568.000000 259.889108
  L 572.000000 254.997269
  L 576.000000 235.155604
  L 580.000000 237.599625
  L 580.000000 236.019616
  L 576.000000 233.634392
  L 572.000000 253.517930
  L 568.000000 258.473627
  L 564.000000 250.480159
  L 560.000000 256.059017
  L 556.000000 258.661985
  L 552.000000 263.490996
  L 548.000000 263.201229
  L 544.000000 265.419075
  L 540.000000 265.479893
  L 536.000000 263.671340
  L 532.000000 264.765562
  L 528.000000 263.219842
  L 524.000000 263.339981
  L 520.000000 262.838727
  L 516.000000 263.791158
  L 512.000000 265.594897
  L 508.000000 267.559900
  L 504.000000 266.484410
  L 500.000000 265.996175
  L 496.000000 266.634517
  L 492.000000 264.809286
  L 488.000000 265.929121
  L 484.000000 265.769939
  L 480.000000 266.068718
  L 476.000000 267.974819
  L 472.000000 268.437720
  L 468.000000 268.664819
  L 464.000000 268.505639
  L 460.000000 266.036653
  L 456.000000 266.844413
  L 452.000000 266.033698
  L 448.000000 267.444723
  L 444.000000 267.134057
  L 440.000000 266.395673
  L 436.000000 266.881931
  L 432.000000 268.172901
  L 428.000000 267.108598
  L 424.000000 268.143579
  L 420.000000 266.921567
  L 416.000000 268.479408
  L 412.000000 267.969907
  L 408.000000 267.187336
  L 404.000000 265.884820
  L 400.000000 268.276793
  L 396.000000 266.031791
  L 392.000000 268.457576
  L 388.000000 268.215212
  L 384.000000 268.261894
  L 380.000000 270.367957
  L 376.000000 268.509111
  L 372.000000 266.803193
  L 368.000000 266.358716
  L 364.000000 268.677972
  L 360.000000 266.266738
  L 356.000000 268.222416
  L 352.000000 267.764839
  L 348.000000 270.147692
  L 344.000000 268.923795
  L 340.000000 269.258960
  L 336.000000 267.580959
  L 332.000000 267.244960
  L 328.000000 268.100810
  L 324.000000 268.905724
  L 320.000000 267.989483
  L 316.000000 269.991139
  L 312.000000 269.922799
  L 308.000000 269.978451
  L 304.000000 267.484403
  L 300.000000 269.268420
  L 296.000000 269.242369
  L 292.000000 268.494920
  L 288.000000 269.536157
  L 284.000000 269.216419
  L 280.000000 269.844621
  L 276.000000 266.750816
  L 272.000000 269.904266
  L 268.000000 270.962074
  L 264.000000 268.665464
  L 260.000000 270.926367
  L 256.000000 270.841898
  L 252.000000 271.277828
  L 248.000000 271.652938
  L 244.000000 269.057368
  L 240.000000 268.838255
  L 236.000000 268.267331
  L 232.000000 271.995984
  L 228.000000 270.518044
  L 224.000000 270.271872
  L 220.000000 274.976268
  L 216.000000 267.227454
  L 212.000000 272.464497
  L 208.000000 269.966505
  L 204.000000 271.451094
  L 200.000000 271.487764
  L 196.000000 270.922849
  L 192.000000 270.508060
  L 188.000000 273.168212
  L 184.000000 272.371473
  L 180.000000 271.143423
  L 176.000000 271.322520
  L 172.000000 271.513741
  L 168.000000 274.018475
  L 164.000000 272.832982
  L 160.000000 272.360819
  L 156.000000 271.625844
  L 152.000000 274.733086
  L 148.000000 271.590184
  L 144.000000 275.021688
  L 140.000000 275.273373
  L 136.000000 273.741904
  L 132.000000 275.040122
  L 128.000000 276.728882
  L 124.000000 274.738707
  L 120.000000 272.598228
  L 116.000000 274.608372
  L 112.000000 277.868386
  L 108.000000 276.194613
  L 104.000000 278.795332
  L 100.000000 283.199462
  L 96.000000 276.959795
  L 92.000000 271.970960
  L 88.000000 279.115395
  L 84.000000 305.188784
Z" fill="rgb(248,118,109)" fill-opacity="0.2"/>
<path d="M 84.000000 532.773153
  L 88.000000 355.966452
  L 92.000000 295.906842
  L 96.000000 313.942899
  L 100.000000 300.906536
  L 104.000000 286.102094
  L 108.000000 288.585022
  L 112.000000 290.158621
  L 116.000000 293.174789
  L 120.000000 291.691041
  L 124.000000 291.348153
  L 128.000000 289.730407
  L 132.000000 288.171836
  L 136.000000 286.686411
  L 140.000000 283.990497
  L 144.000000 285.140871
  L 148.000000 283.440714
  L 152.000000 282.601121
  L 156.000000 283.849778
  L 160.000000 283.593959
  L 164.000000 281.023812
  L 168.000000 280.528807
  L 172.000000 280.454995
  L 176.000000 279.676936
  L 180.000000 279.622755
  L 184.000000 277.862612
  L 188.000000 279.278238
  L 192.000000 279.803786
  L 196.000000 279.065756
  L 200.000000 278.778422
  L 204.000000 278.031094
  L 208.000000 276.764401
  L 212.000000 275.594217
  L 216.000000 276.612958
  L 220.000000 275.486229
  L 224.000000 275.161382
  L 228.000000 274.752401
  L 232.000000 275.331276
  L 236.000000 274.150865
  L 240.000000 274.813205
  L 244.000000 274.078067
  L 248.000000 274.169088
  L 252.000000 274.586765
  L 256.000000 274.203902
  L 260.000000 273.057375
  L 264.000000 272.783539
  L 268.000000 272.116109
  L 272.000000 273.341974
  L 276.000000 273.809020
  L 280.000000 273.435850
  L 284.000000 272.997536
  L 288.000000 272.782134
  L 292.000000 273.409959
  L 296.000000 272.430085
  L 300.000000 272.045183
  L 304.000000 271.702950
  L 308.000000 271.551853
  L 312.000000 272.073158
  L 316.000000 272.354808
  L 320.000000 272.575119
  L 324.000000 272.499203
  L 328.000000 272.272322
  L 332.000000 272.067908
  L 336.000000 271.684313
  L 340.000000 270.825796
  L 344.000000 271.739305
  L 348.000000 272.273454
  L 352.000000 272.007296
  L 356.000000 271.741309
  L 360.000000 271.854613
  L 364.000000 271.540265
  L 368.000000 271.860118
  L 372.000000 271.632312
  L 376.000000 271.739122
  L 380.000000 271.477020
  L 384.000000 271.126321
  L 388.000000 270.887544
  L 392.000000 271.558459
  L 396.000000 271.488941
  L 400.000000 272.312871
  L 404.000000 272.178580
  L 408.000000 271.919112
  L 412.000000 271.258342
  L 416.000000 271.524120
  L 420.000000 271.109595
  L 424.000000 271.494986
  L 428.000000 270.652540
  L 432.000000 270.843898
  L 436.000000 271.829955
  L 440.000000 271.660148
  L 444.000000 272.669038
  L 448.000000 272.551356
  L 452.000000 272.231644
  L 456.000000 272.049700
  L 460.000000 271.044751
  L 464.000000 271.081727
  L 468.000000 271.128891
  L 472.000000 271.559979
  L 476.000000 271.472926
  L 480.000000 271.858278
  L 484.000000 272.307113
  L 488.000000 272.235152
  L 492.000000 272.239336
  L 496.000000 272.056769
  L 500.000000 272.260240
  L 504.000000 271.999707
  L 508.000000 271.390079
  L 512.000000 271.036967
  L 516.000000 271.949298
  L 520.000000 271.889057
  L 524.000000 272.207272
  L 528.000000 272.291925
  L 532.000000 272.661371
  L 536.000000 272.339399
  L 540.000000 271.584911
  L 544.000000 271.756587
  L 548.000000 271.767545
  L 552.000000 271.312231
  L 556.000000 270.783130
  L 560.000000 271.310442
  L 564.000000 271.344184
  L 568.000000 271.490833
  L 572.000000 271.110030
  L 576.000000 268.300357
  L 580.000000 80.009697
  L 580.000000 80.000000
  L 576.000000 266.847285
  L 572.000000 269.681989
  L 568.000000 270.072274
  L 564.000000 269.930538
  L 560.000000 269.900957
  L 556.000000 269.378490
  L 552.000000 269.909123
  L 548.000000 270.360536
  L 544.000000 270.352860
  L 540.000000 270.185515
  L 536.000000 270.934765
  L 532.000000 271.258936
  L 528.000000 270.891478
  L 524.000000 270.805387
  L 520.000000 270.488223
  L 516.000000 270.547289
  L 512.000000 269.640154
  L 508.000000 269.994828
  L 504.000000 270.603289
  L 500.000000 270.858582
  L 496.000000 270.659270
  L 492.000000 270.843090
  L 488.000000 270.838153
  L 484.000000 270.909337
  L 480.000000 270.463241
  L 476.000000 270.080307
  L 472.000000 270.165415
  L 468.000000 269.736741
  L 464.000000 269.695922
  L 460.000000 269.659057
  L 456.000000 270.660301
  L 452.000000 270.838894
  L 448.000000 271.159718
  L 444.000000 271.276401
  L 440.000000 270.271967
  L 436.000000 270.442023
  L 432.000000 269.456947
  L 428.000000 269.266308
  L 424.000000 270.108927
  L 420.000000 269.723108
  L 416.000000 270.137874
  L 412.000000 269.876451
  L 408.000000 270.536049
  L 404.000000 270.789514
  L 400.000000 270.926366
  L 396.000000 270.105070
  L 392.000000 270.172428
  L 388.000000 269.504161
  L 384.000000 269.740940
  L 380.000000 270.091040
  L 376.000000 270.356915
  L 372.000000 270.250305
  L 368.000000 270.475022
  L 364.000000 270.159269
  L 360.000000 270.469261
  L 356.000000 270.357226
  L 352.000000 270.619263
  L 348.000000 270.883662
  L 344.000000 270.352459
  L 340.000000 269.445334
  L 336.000000 270.303236
  L 332.000000 270.688005
  L 328.000000 270.887252
  L 324.000000 271.112084
  L 320.000000 271.187792
  L 316.000000 270.970550
  L 312.000000 270.689089
  L 308.000000 270.168235
  L 304.000000 270.319275
  L 300.000000 270.661655
  L 296.000000 271.044524
  L 292.000000 272.017094
  L 288.000000 271.391056
  L 284.000000 271.612972
  L 280.000000 272.053882
  L 276.000000 272.418086
  L 272.000000 271.951972
  L 268.000000 270.735679
  L 264.000000 271.392721
  L 260.000000 271.671025
  L 256.000000 272.813095
  L 252.000000 273.193319
  L 248.000000 272.782459
  L 244.000000 272.695814
  L 240.000000 273.423105
  L 236.000000 272.769013
  L 232.000000 273.938469
  L 228.000000 273.361215
  L 224.000000 273.767865
  L 220.000000 274.093930
  L 216.000000 275.217737
  L 212.000000 274.209965
  L 208.000000 275.371054
  L 204.000000 276.632103
  L 200.000000 277.372493
  L 196.000000 277.661593
  L 192.000000 278.396710
  L 188.000000 277.878131
  L 184.000000 276.467949
  L 180.000000 278.214197
  L 176.000000 278.282165
  L 172.000000 279.048045
  L 168.000000 279.120859
  L 164.000000 279.610107
  L 160.000000 282.169182
  L 156.000000 282.426975
  L 152.000000 281.189845
  L 148.000000 282.020941
  L 144.000000 283.710402
  L 140.000000 282.567591
  L 136.000000 285.255652
  L 132.000000 286.737703
  L 128.000000 288.297082
  L 124.000000 289.922038
  L 120.000000 290.265394
  L 116.000000 291.720038
  L 112.000000 288.694554
  L 108.000000 287.193935
  L 104.000000 284.678580
  L 100.000000 299.461200
  L 96.000000 312.443437
  L 92.000000 294.241905
  L 88.000000 354.652638
  L 84.000000 532.097736
Z" fill="rgb(0,191,196)" fill-opacity="0.2"/>
<path d="M 84.000000 305.895597
  L 88.000000 279.745166
  L 92.000000 272.655240
  L 96.000000 277.664249
  L 100.000000 283.914910
  L 104.000000 279.511532
  L 108.000000 276.882502
  L 112.000000 278.579282
  L 116.000000 275.305769
  L 120.000000 273.280512
  L 124.000000 275.437730
  L 128.000000 277.435416
  L 132.000000 275.741225
  L 136.000000 274.434026
  L 140.000000 275.972248
  L 144.000000 275.724990
  L 148.000000 272.271524
  L 152.000000 275.439609
  L 156.000000 272.322910
  L 160.000000 273.051842
  L 164.000000 273.526938
  L 168.000000 274.723054
  L 172.000000 272.199294
  L 176.000000 272.014654
  L 180.000000 271.826285
  L 184.000000 273.068017
  L 188.000000 273.871132
  L 192.000000 271.197330
  L 196.000000 271.617374
  L 200.000000 272.183307
  L 204.000000 272.142901
  L 208.000000 270.652623
  L 212.000000 273.158712
  L 216.000000 267.905480
  L 220.000000 275.688096
  L 224.000000 270.956977
  L 228.000000 271.211053
  L 232.000000 272.695213
  L 236.000000 268.953426
  L 240.000000 269.524141
  L 244.000000 269.739206
  L 248.000000 272.357735
  L 252.000000 271.976183
  L 256.000000 271.536509
  L 260.000000 271.623394
  L 264.000000 269.345724
  L 268.000000 271.658934
  L 272.000000 270.599585
  L 276.000000 267.427151
  L 280.000000 270.535216
  L 284.000000 269.910609
  L 288.000000 270.227788
  L 292.000000 269.179526
  L 296.000000 269.936570
  L 300.000000 269.958569
  L 304.000000 268.161638
  L 308.000000 270.671003
  L 312.000000 270.617058
  L 316.000000 270.685861
  L 320.000000 268.679613
  L 324.000000 269.595430
  L 328.000000 268.789078
  L 332.000000 267.928389
  L 336.000000 268.265512
  L 340.000000 269.952044
  L 344.000000 269.616097
  L 348.000000 270.843923
  L 352.000000 268.449101
  L 356.000000 268.915646
  L 360.000000 266.951029
  L 364.000000 269.370035
  L 368.000000 267.038900
  L 372.000000 267.488867
  L 376.000000 269.201108
  L 380.000000 271.070727
  L 384.000000 268.951057
  L 388.000000 268.900901
  L 392.000000 269.150644
  L 396.000000 266.718699
  L 400.000000 268.974136
  L 404.000000 266.569628
  L 408.000000 267.878692
  L 412.000000 268.662316
  L 416.000000 269.176216
  L 420.000000 267.611030
  L 424.000000 268.833854
  L 428.000000 267.795851
  L 432.000000 268.866944
  L 436.000000 267.573087
  L 440.000000 267.085583
  L 444.000000 267.828376
  L 448.000000 268.133286
  L 452.000000 266.720068
  L 456.000000 267.536213
  L 460.000000 266.722334
  L 464.000000 269.203376
  L 468.000000 269.362523
  L 472.000000 269.134847
  L 476.000000 268.670538
  L 480.000000 266.760940
  L 484.000000 266.461186
  L 488.000000 266.622692
  L 492.000000 265.496485
  L 496.000000 267.332647
  L 500.000000 266.690536
  L 504.000000 267.182322
  L 508.000000 268.260318
  L 512.000000 266.292736
  L 516.000000 264.483561
  L 520.000000 263.529541
  L 524.000000 264.036360
  L 528.000000 263.911887
  L 532.000000 265.465770
  L 536.000000 264.367209
  L 540.000000 266.181685
  L 544.000000 266.117406
  L 548.000000 263.895572
  L 552.000000 264.199987
  L 556.000000 259.361147
  L 560.000000 256.745829
  L 564.000000 251.169062
  L 568.000000 259.180750
  L 572.000000 254.256870
  L 576.000000 234.393962
  L 580.000000 236.808540
" stroke="rgb(248,118,109)" stroke-width="2" fill-opacity="0"/>
<path d="M 84.000000 532.436517
  L 88.000000 355.309721
  L 92.000000 295.073979
  L 96.000000 313.193016
  L 100.000000 300.183616
  L 104.000000 285.389964
  L 108.000000 287.889143
  L 112.000000 289.426230
  L 116.000000 292.447088
  L 120.000000 290.977892
  L 124.000000 290.634767
  L 128.000000 289.013398
  L 132.000000 287.454409
  L 136.000000 285.970659
  L 140.000000 283.278652
  L 144.000000 284.425251
  L 148.000000 282.730432
  L 152.000000 281.895085
  L 156.000000 283.137983
  L 160.000000 282.881174
  L 164.000000 280.316546
  L 168.000000 279.824419
  L 172.000000 279.751106
  L 176.000000 278.979137
  L 180.000000 278.918053
  L 184.000000 277.164851
  L 188.000000 278.577763
  L 192.000000 279.099827
  L 196.000000 278.363249
  L 200.000000 278.075028
  L 204.000000 277.331167
  L 208.000000 276.067288
  L 212.000000 274.901647
  L 216.000000 275.914906
  L 220.000000 274.789629
  L 224.000000 274.464170
  L 228.000000 274.056352
  L 232.000000 274.634421
  L 236.000000 273.459484
  L 240.000000 274.117700
  L 244.000000 273.386484
  L 248.000000 273.475315
  L 252.000000 273.889583
  L 256.000000 273.508038
  L 260.000000 272.363732
  L 264.000000 272.087657
  L 268.000000 271.425422
  L 272.000000 272.646505
  L 276.000000 273.113089
  L 280.000000 272.744404
  L 284.000000 272.304786
  L 288.000000 272.086121
  L 292.000000 272.713057
  L 296.000000 271.736831
  L 300.000000 271.352943
  L 304.000000 271.010634
  L 308.000000 270.859565
  L 312.000000 271.380648
  L 316.000000 271.662206
  L 320.000000 271.880983
  L 324.000000 271.805170
  L 328.000000 271.579313
  L 332.000000 271.377484
  L 336.000000 270.993298
  L 340.000000 270.135081
  L 344.000000 271.045402
  L 348.000000 271.578081
  L 352.000000 271.312801
  L 356.000000 271.048789
  L 360.000000 271.161459
  L 364.000000 270.849289
  L 368.000000 271.167092
  L 372.000000 270.940831
  L 376.000000 271.047541
  L 380.000000 270.783548
  L 384.000000 270.433146
  L 388.000000 270.195367
  L 392.000000 270.864962
  L 396.000000 270.796525
  L 400.000000 271.619144
  L 404.000000 271.483569
  L 408.000000 271.227104
  L 412.000000 270.566915
  L 416.000000 270.830515
  L 420.000000 270.415865
  L 424.000000 270.801474
  L 428.000000 269.958934
  L 432.000000 270.149934
  L 436.000000 271.135509
  L 440.000000 270.965575
  L 444.000000 271.972244
  L 448.000000 271.855061
  L 452.000000 271.534789
  L 456.000000 271.354521
  L 460.000000 270.351418
  L 464.000000 270.388339
  L 468.000000 270.432326
  L 472.000000 270.862210
  L 476.000000 270.776130
  L 480.000000 271.160274
  L 484.000000 271.607742
  L 488.000000 271.536170
  L 492.000000 271.540731
  L 496.000000 271.357535
  L 500.000000 271.558925
  L 504.000000 271.301013
  L 508.000000 270.691964
  L 512.000000 270.338067
  L 516.000000 271.247805
  L 520.000000 271.188151
  L 524.000000 271.505843
  L 528.000000 271.591217
  L 532.000000 271.959671
  L 536.000000 271.636595
  L 540.000000 270.884722
  L 544.000000 271.054232
  L 548.000000 271.063546
  L 552.000000 270.610181
  L 556.000000 270.080309
  L 560.000000 270.605199
  L 564.000000 270.636858
  L 568.000000 270.781048
  L 572.000000 270.395494
  L 576.000000 267.573259
  L 580.000000 80.000000
" stroke="rgb(0,191,196)" stroke-width="2" fill-opacity="0"/>
<text x="650" y="650" text-anchor="end">--OB 2,123,6,124</text>
<line x1="88.000000" y1="580" x2="88.000000" y2="80" stroke-dasharray="5 1" stroke="rgb(248,118,109)" stroke-width="1" />
<line x1="572.000000" y1="580" x2="572.000000" y2="80" stroke-dasharray="5 1" stroke="rgb(248,118,109)" stroke-width="1" />
<line x1="104.000000" y1="580" x2="104.000000" y2="80" stroke-dasharray="5 1" stroke="rgb(0,191,196)" stroke-width="1" />
<line x1="576.000000" y1="580" x2="576.000000" y2="80" stroke-dasharray="5 1" stroke="rgb(0,191,196)" stroke-width="1" />
<rect x="590" y="310" width="20" height="20" fill="rgb(248,118,109)" />
<text x="615" y="320" text-anchor="start" dominant-baseline="middle">#1</text>
<rect x="590" y="330" width="20" height="20" fill="rgb(0,191,196)" />
<text x="615" y="340" text-anchor="start" dominant-baseline="middle">#2</text>
</svg>
